<?xml version="1.0" standalone="no"?>
<!DOCTYPE svg PUBLIC "-//W3C//DTD SVG 20010904//EN"
 "http://www.w3.org/TR/2001/REC-SVG-20010904/DTD/svg10.dtd">
<svg version="1.0" xmlns="http://www.w3.org/2000/svg"
 width="512.000000pt" height="512.000000pt" viewBox="0 0 512.000000 512.000000"
 preserveAspectRatio="xMidYMid meet">
<metadata>
Created by potrace 1.16, written by Peter Selinger 2001-2019
</metadata>
<g transform="translate(0.000000,512.000000) scale(0.100000,-0.100000)"
fill="#000000" stroke="none">
<path d="M2565 4481 c-3 -5 -1 -12 5 -16 12 -7 30 2 30 16 0 12 -27 12 -35 0z"/>
<path d="M2156 4428 c-9 -12 -16 -29 -16 -38 0 -9 7 -26 16 -38 40 -58 108 14
74 79 -14 26 -55 24 -74 -3z"/>
<path d="M2415 4345 c-171 -27 -345 -85 -345 -115 0 -4 46 7 103 25 233 76
435 99 626 71 119 -18 277 -66 352 -107 47 -26 64 -64 35 -75 -28 -11 -17 -21
29 -27 57 -8 112 -36 197 -101 60 -46 67 -55 67 -87 1 -42 26 -69 64 -69 29 0
57 32 57 66 0 53 -70 95 -99 60 -10 -12 -19 -8 -54 26 -23 23 -83 72 -133 109
-50 38 -94 75 -97 83 -14 37 -231 115 -389 141 -111 18 -302 18 -413 0z"/>
<path d="M1937 4304 c-4 -4 -7 -16 -7 -26 0 -14 6 -19 23 -16 14 2 22 10 22
23 0 20 -25 32 -38 19z"/>
<path d="M2485 4274 c41 -6 349 -9 320 -3 -16 4 -100 7 -185 6 -85 0 -146 -1
-135 -3z"/>
<path d="M3395 4268 c-53 -31 -60 -85 -16 -129 77 -77 190 24 119 105 -27 30
-74 41 -103 24z m105 -69 c0 -11 -4 -17 -10 -14 -5 3 -10 13 -10 21 0 8 5 14
10 14 6 0 10 -9 10 -21z"/>
<path d="M2423 4263 c9 -2 23 -2 30 0 6 3 -1 5 -18 5 -16 0 -22 -2 -12 -5z"/>
<path d="M2348 4253 c6 -2 18 -2 25 0 6 3 1 5 -13 5 -14 0 -19 -2 -12 -5z"/>
<path d="M2848 4253 c6 -2 18 -2 25 0 6 3 1 5 -13 5 -14 0 -19 -2 -12 -5z"/>
<path d="M2298 4243 c7 -3 16 -2 19 1 4 3 -2 6 -13 5 -11 0 -14 -3 -6 -6z"/>
<path d="M2208 4223 c7 -3 16 -2 19 1 4 3 -2 6 -13 5 -11 0 -14 -3 -6 -6z"/>
<path d="M3028 4223 c7 -3 16 -2 19 1 4 3 -2 6 -13 5 -11 0 -14 -3 -6 -6z"/>
<path d="M2390 4195 c-291 -60 -542 -232 -754 -515 -145 -194 -216 -382 -235
-618 -14 -178 1 -302 63 -516 30 -102 36 -247 12 -294 -7 -15 -18 -76 -24
-137 -6 -60 -20 -139 -31 -175 -26 -82 -26 -111 0 -144 26 -33 62 -34 94 -1
30 29 31 51 4 135 -24 79 -41 237 -27 263 10 20 30 18 36 -4 3 -12 2 -12 -7 1
-9 12 -11 12 -16 -2 -15 -38 15 -78 49 -65 23 9 21 73 -4 130 -14 32 -23 83
-30 174 -5 79 -17 152 -29 191 -29 87 -45 231 -37 335 12 180 76 413 154 562
133 253 411 500 659 586 88 30 86 22 -3 -14 -284 -115 -558 -386 -636 -629
-12 -38 -25 -68 -29 -68 -4 0 -5 -10 -1 -22 3 -13 1 -19 -5 -15 -7 5 -9 -1 -5
-15 3 -14 1 -19 -6 -14 -8 5 -10 -2 -5 -25 4 -20 2 -30 -4 -26 -21 13 -25
-341 -4 -448 29 -147 80 -272 157 -382 l43 -63 -22 -15 c-12 -8 -29 -15 -39
-15 -27 0 -22 -11 30 -71 26 -29 53 -63 61 -74 14 -21 -6 0 -96 99 -61 68 -71
61 -17 -11 57 -76 163 -181 244 -242 132 -99 161 -125 216 -190 50 -60 92
-145 76 -155 -14 -8 -147 34 -216 68 -39 19 -108 64 -153 100 -45 37 -83 66
-85 66 -1 0 -3 -75 -3 -168 0 -134 -4 -181 -19 -240 -25 -90 -16 -125 30 -130
20 -2 36 4 49 18 18 20 18 24 1 128 -20 124 -19 293 2 300 19 6 81 -65 108
-123 19 -40 24 -67 24 -136 0 -48 -7 -108 -15 -135 -20 -65 -19 -97 3 -117 24
-22 55 -21 75 1 21 23 21 45 2 119 -8 31 -15 89 -15 129 0 87 17 110 77 101
60 -10 68 -25 53 -96 -14 -68 -9 -91 20 -91 29 0 35 25 21 79 -6 26 -9 55 -5
64 10 27 43 21 50 -9 10 -41 -2 -163 -26 -257 -20 -79 -21 -87 -6 -116 27 -50
93 -39 111 19 3 11 -1 50 -10 87 -11 47 -15 101 -13 173 l3 105 35 0 c52 0 61
-26 57 -160 -2 -60 -7 -119 -11 -131 -5 -14 -2 -27 9 -38 19 -18 24 -19 43 -7
15 9 16 21 7 131 -3 41 -2 102 3 135 8 57 9 59 20 33 19 -45 51 -221 62 -336
13 -138 0 -280 -40 -428 -34 -128 -36 -153 -15 -194 49 -96 181 -96 230 0 21
40 19 67 -12 183 -25 93 -28 117 -28 282 0 231 19 337 100 555 l13 35 10 -26
c18 -46 35 -220 29 -302 -3 -49 -16 -112 -31 -156 -34 -97 -33 -125 3 -162 36
-36 73 -37 106 -4 31 30 32 64 4 175 -19 74 -21 103 -16 235 6 167 16 213 55
254 28 29 105 65 116 54 9 -10 7 -93 -5 -143 -15 -64 -5 -92 29 -88 l27 3 0
110 c0 69 5 118 12 132 13 22 165 133 182 133 38 0 32 -182 -10 -322 -26 -88
-21 -123 22 -147 22 -12 29 -12 54 0 16 8 36 26 44 41 14 24 13 35 -8 120 -17
66 -25 131 -28 223 l-4 130 28 30 28 30 4 -40 c2 -22 -2 -75 -9 -118 -11 -70
-11 -80 4 -95 22 -22 50 -5 54 33 2 15 0 25 -5 22 -13 -8 0 240 14 254 23 23
28 -2 26 -117 -2 -94 0 -116 12 -121 9 -3 22 0 30 7 16 13 21 55 6 45 -6 -3
-10 3 -10 12 0 10 -3 63 -7 118 -4 63 -2 115 4 139 7 22 10 41 8 43 -1 2 -45
-40 -97 -93 -146 -149 -342 -269 -529 -324 -41 -12 -81 -29 -87 -38 -7 -9 -13
-41 -14 -71 -1 -55 -1 -56 -10 -18 -5 21 -16 51 -24 67 -23 44 -19 56 33 109
36 37 62 53 114 70 140 46 292 138 406 245 89 84 210 258 200 288 -2 5 -33
-28 -68 -74 -119 -153 -295 -310 -422 -374 -73 -37 -71 -28 2 11 74 41 120 79
60 51 -34 -16 -34 -16 -12 1 119 92 184 150 223 195 138 161 223 322 272 517
31 124 30 380 -1 496 -72 263 -273 509 -507 621 -302 145 -633 118 -935 -77
-213 -138 -350 -318 -412 -544 -18 -67 -21 -106 -21 -240 0 -156 12 -232 57
-370 3 -11 -5 4 -19 34 -62 130 -87 338 -62 506 18 113 68 275 122 391 83 180
240 331 446 428 158 75 314 102 488 85 272 -26 503 -155 667 -373 110 -146
210 -416 230 -622 4 -38 10 -76 15 -84 13 -23 -1 114 -22 222 -21 104 -66 244
-106 321 -31 63 -23 71 15 15 75 -110 124 -240 147 -398 17 -106 20 -290 6
-290 -5 0 -12 -23 -16 -52 -4 -28 -20 -92 -36 -142 -15 -50 -26 -92 -25 -94 8
-7 64 155 82 233 25 109 26 348 2 458 -34 150 -115 310 -226 445 -52 62 -192
176 -278 225 -77 44 -99 68 -40 43 51 -21 175 -107 238 -165 31 -28 61 -51 67
-51 26 0 7 43 -41 93 -136 138 -380 255 -608 292 -58 9 -121 21 -141 26 -51
13 -202 10 -279 -6z m97 -41 c-3 -3 -12 -4 -19 -1 -8 3 -5 6 6 6 11 1 17 -2
13 -5z m-40 -10 c-3 -3 -12 -4 -19 -1 -8 3 -5 6 6 6 11 1 17 -2 13 -5z m-40
-10 c-3 -3 -12 -4 -19 -1 -8 3 -5 6 6 6 11 1 17 -2 13 -5z m441 -244 c348 -83
619 -392 664 -757 46 -380 -184 -795 -552 -996 -128 -70 -309 -120 -480 -132
-193 -14 -386 55 -534 193 -60 56 -59 64 2 13 128 -108 256 -153 431 -152 187
0 378 63 561 185 215 144 350 325 350 470 0 52 -39 137 -74 159 -24 16 -25 19
-13 45 20 39 29 81 21 104 -5 18 -9 15 -24 -19 -28 -64 -94 -104 -218 -133
-60 -14 -82 -4 -82 35 0 23 24 40 41 29 19 -11 116 26 156 61 41 34 63 81 63
130 0 15 -9 9 -43 -27 -36 -39 -97 -78 -122 -78 -3 0 -5 18 -5 40 0 30 5 42
18 46 80 24 114 66 120 146 5 73 -29 151 -83 187 -46 31 -116 39 -150 17 -32
-21 -45 -14 -45 25 0 37 -24 84 -46 93 -10 4 -25 -1 -36 -11 -19 -17 -20 -30
-13 -486 8 -457 7 -469 -11 -465 -16 3 -19 14 -22 73 -2 38 -8 75 -14 82 -28
34 -78 -2 -78 -56 0 -31 9 -43 73 -103 l72 -67 3 -84 c3 -66 1 -86 -12 -96
-26 -22 -36 -3 -36 67 0 75 -14 104 -72 153 -69 56 -88 144 -43 197 29 34 74
50 86 30 13 -20 20 -4 13 31 -6 29 -9 31 -35 26 -23 -5 -34 0 -70 37 -42 42
-44 39 -7 -14 22 -31 22 -38 4 -38 -7 0 -23 22 -35 50 -12 27 -44 79 -71 115
l-50 66 -1 -73 c0 -103 -11 -152 -32 -156 -11 -2 -20 5 -26 20 -8 22 -9 22
-15 -10 -21 -92 -131 -149 -206 -106 -27 16 -29 16 -84 -15 -72 -42 -129 -90
-180 -152 -41 -50 -41 -50 -58 -29 -25 31 -74 164 -93 255 -21 98 -24 306 -6
390 43 200 155 375 325 511 221 177 500 239 774 174z m-16 -404 c5 -22 7 -139
6 -260 -3 -189 -5 -221 -18 -221 -13 0 -16 35 -20 235 -3 129 -9 241 -14 248
-12 19 1 44 21 40 11 -2 20 -18 25 -42z m218 -81 c60 -57 77 -139 42 -205 -21
-39 -72 -70 -114 -70 -27 0 -28 -1 -28 -59 0 -58 -14 -87 -30 -61 -4 6 -11 99
-15 206 -8 227 -8 229 68 221 35 -3 56 -12 77 -32z m-172 -503 c2 -14 -2 -22
-11 -22 -20 0 -27 -22 -27 -79 0 -57 6 -65 30 -41 11 11 36 22 57 26 21 3 72
14 114 24 89 21 122 17 149 -18 50 -62 -5 -194 -138 -334 -20 -21 -39 -38 -43
-38 -3 0 -9 18 -13 40 -7 44 -10 45 -81 27 -50 -13 -50 -14 -57 -61 -4 -26
-10 -55 -13 -65 -6 -14 -8 -14 -21 4 -13 17 -14 56 -8 270 4 138 11 260 15
273 11 29 43 26 47 -6z m-408 -135 c0 -7 -22 -72 -50 -145 -27 -73 -50 -137
-50 -142 0 -6 11 -10 25 -10 20 0 28 8 41 40 16 40 27 49 39 30 7 -12 62 -14
68 -2 2 4 -6 48 -19 97 -27 104 -24 148 9 143 19 -3 22 -10 24 -53 6 -105 24
-164 64 -208 l39 -41 -21 -22 c-37 -39 -6 -59 38 -24 14 11 31 20 37 20 8 0 8
-2 0 -8 -6 -4 -14 -19 -18 -34 -9 -37 -44 -68 -77 -68 -20 0 -30 7 -39 30 -12
28 -15 30 -49 24 -77 -15 -82 -18 -114 -79 -26 -49 -37 -60 -57 -60 -16 0 -26
6 -28 18 -2 10 3 17 12 17 11 0 56 91 56 115 0 3 -13 5 -30 5 -25 0 -35 -9
-63 -53 -42 -65 -83 -87 -164 -87 -101 0 -283 57 -283 89 0 10 14 46 31 81 77
152 263 265 358 215 54 -27 76 -117 51 -204 -18 -63 -2 -43 20 26 32 96 99
264 116 291 15 22 34 22 34 -1z m-951 -889 c1 -5 -3 -8 -9 -8 -5 0 -10 12 -9
28 0 24 1 25 9 7 5 -11 9 -23 9 -27z m848 26 c-3 -3 -12 -4 -19 -1 -8 3 -5 6
6 6 11 1 17 -2 13 -5z m-69 -59 c47 -42 112 -128 112 -147 0 -4 -27 -8 -60 -8
-49 0 -62 3 -66 18 -3 9 -18 50 -34 91 -41 106 -30 116 48 46z m396 -10 c-13
-32 -60 -233 -82 -350 -6 -27 -10 -40 -11 -28 -2 31 37 249 55 313 14 51 38
100 49 100 2 0 -3 -16 -11 -35z m-897 -187 c-2 -24 -4 -7 -4 37 0 44 2 63 4
43 2 -21 2 -57 0 -80z m1540 65 c-3 -10 -5 -2 -5 17 0 19 2 27 5 18 2 -10 2
-26 0 -35z m-606 -44 c-10 -23 -10 -23 -10 7 -1 17 2 34 7 38 11 12 14 -18 3
-45z m86 -121 c-2 -13 -4 -3 -4 22 0 25 2 35 4 23 2 -13 2 -33 0 -45z m562 12
c0 -10 -3 -8 -9 5 -12 27 -12 43 0 25 5 -8 9 -22 9 -30z m-1562 -77 c-3 -10
-5 -4 -5 12 0 17 2 24 5 18 2 -7 2 -21 0 -30z m200 -75 c-3 -8 -6 -5 -6 6 -1
11 2 17 5 13 3 -3 4 -12 1 -19z m580 -25 c-3 -10 -5 -2 -5 17 0 19 2 27 5 18
2 -10 2 -26 0 -35z m-310 -65 c-3 -8 -6 -5 -6 6 -1 11 2 17 5 13 3 -3 4 -12 1
-19z m300 -70 c-2 -18 -4 -6 -4 27 0 33 2 48 4 33 2 -15 2 -42 0 -60z m276
-81 c3 -22 2 -35 -4 -32 -5 4 -9 22 -9 42 0 45 5 40 13 -10z m-286 -149 c-2
-24 -4 -5 -4 42 0 47 2 66 4 43 2 -24 2 -62 0 -85z m-10 -80 c-3 -8 -6 -5 -6
6 -1 11 2 17 5 13 3 -3 4 -12 1 -19z m83 -210 c0 -15 -4 -29 -9 -33 -14 -8
-24 32 -16 63 5 20 8 23 16 11 5 -7 9 -26 9 -41z"/>
<path d="M2754 3686 c-11 -28 1 -51 25 -51 32 0 49 28 32 49 -17 20 -50 21
-57 2z"/>
<path d="M2611 3668 c-5 -13 -16 -74 -25 -137 -11 -73 -24 -127 -37 -147 -24
-39 -94 -70 -136 -60 -25 5 -26 5 -9 -5 11 -7 48 -11 83 -10 58 2 66 0 93 -28
27 -26 30 -36 30 -91 0 -61 -15 -105 -44 -129 -13 -11 -8 -21 37 -76 52 -64
80 -79 91 -49 3 9 5 59 4 112 -1 74 -3 81 -5 32 -6 -130 -27 -149 -29 -27 -1
40 -6 142 -11 227 -9 128 -8 158 3 170 12 12 16 12 31 -3 16 -15 16 -20 3 -40
-9 -14 -16 -58 -18 -118 -4 -85 -2 -97 14 -103 30 -12 36 15 30 144 -6 131
-21 208 -56 303 -23 61 -36 70 -49 35z"/>
<path d="M2490 3510 c-19 -11 -80 -33 -135 -50 -277 -86 -365 -132 -365 -189
0 -33 17 -51 47 -51 19 0 23 5 23 30 0 38 1 38 240 121 207 73 245 93 245 129
0 31 -13 33 -55 10z"/>
<path d="M3184 3434 c-15 -32 -29 -84 -32 -115 -4 -48 -1 -60 17 -78 27 -27
61 -27 95 0 18 14 26 30 26 50 0 29 -53 173 -71 193 -5 6 -20 -16 -35 -50z
m-4 -104 c-5 -22 -8 -27 -9 -13 -1 21 9 56 14 51 2 -2 0 -19 -5 -38z m89 -25
c1 -17 -1 -17 -9 -5 -5 8 -9 26 -9 40 0 23 1 23 9 5 5 -11 9 -29 9 -40z"/>
<path d="M2240 3294 c-23 -8 -90 -37 -90 -39 0 -1 5 -27 11 -56 6 -30 14 -124
17 -209 l7 -155 30 -3 c44 -4 90 30 134 98 79 122 83 303 7 355 -20 14 -84 19
-116 9z m80 -82 c31 -25 37 -95 14 -168 -18 -58 -70 -145 -90 -151 -6 -2 -15
42 -23 119 -6 68 -15 138 -18 156 -5 29 -2 33 28 47 45 19 62 19 89 -3z"/>
<path d="M2446 3193 c4 -38 8 -69 9 -71 1 -2 19 7 39 19 43 25 55 20 32 -16
-20 -30 -7 -33 19 -5 11 12 19 36 19 57 0 46 -40 83 -90 83 l-35 0 7 -67z"/>
<path d="M2007 3084 c-4 -4 -7 -18 -7 -31 0 -18 5 -23 26 -23 22 0 25 4 22 27
-3 27 -26 41 -41 27z"/>
<path d="M2949 3396 c-2 -2 -3 -50 -1 -105 3 -93 5 -101 23 -101 54 0 88 39
89 102 0 58 -36 108 -79 108 -15 0 -30 -2 -32 -4z"/>
<path d="M2966 2723 c-2 -10 -8 -40 -12 -68 -8 -63 -16 -72 -65 -80 -30 -5
-39 -11 -39 -27 0 -19 4 -20 54 -14 87 10 86 8 88 97 0 43 1 84 2 91 2 19 -22
20 -28 1z m11 -125 c-2 -13 -4 -5 -4 17 -1 22 1 32 4 23 2 -10 2 -28 0 -40z"/>
<path d="M2138 2609 c-16 -9 -15 -12 7 -46 36 -52 48 -107 40 -180 -7 -66 0
-76 28 -45 37 41 65 153 52 210 -13 61 -76 91 -127 61z"/>
<path d="M2489 2483 c-9 -2 -21 -15 -27 -28 -14 -29 -5 -31 64 -14 32 8 44 16
44 30 0 15 -7 19 -32 18 -18 -1 -40 -3 -49 -6z"/>
<path d="M3100 4200 c8 -5 20 -10 25 -10 6 0 3 5 -5 10 -8 5 -19 10 -25 10 -5
0 -3 -5 5 -10z"/>
<path d="M2031 4154 c-176 -82 -341 -209 -435 -335 -65 -86 -57 -105 11 -28
143 159 288 275 436 348 55 27 95 51 90 54 -4 3 -50 -15 -102 -39z"/>
<path d="M1547 3944 c-14 -15 -6 -34 14 -34 14 0 19 5 17 17 -3 18 -20 27 -31
17z"/>
<path d="M2260 3910 c-8 -5 -10 -10 -5 -10 6 0 17 5 25 10 8 5 11 10 5 10 -5
0 -17 -5 -25 -10z"/>
<path d="M3664 3825 c-4 -9 0 -23 9 -32 21 -21 49 -9 45 19 -4 28 -45 38 -54
13z"/>
<path d="M3560 3775 c0 -8 7 -15 15 -15 8 0 15 7 15 15 0 8 -7 15 -15 15 -8 0
-15 -7 -15 -15z"/>
<path d="M3600 3727 c0 -2 21 -35 46 -73 70 -103 106 -187 114 -263 4 -36 12
-79 19 -96 16 -39 41 -158 41 -196 0 -19 -5 -29 -15 -29 -16 0 -22 -30 -28
-150 -10 -176 -99 -425 -210 -582 -49 -70 -41 -89 12 -28 26 31 42 42 54 37
15 -6 17 -24 17 -134 0 -77 -6 -152 -15 -188 -8 -33 -14 -72 -15 -86 0 -31 33
-64 55 -55 22 8 37 54 29 90 -6 25 -8 27 -13 13 -4 -11 -8 69 -10 176 -2 182
-1 198 19 236 34 68 43 44 35 -91 l-7 -120 24 4 23 3 -4 152 c-3 127 -1 155
13 174 9 13 16 41 16 62 0 21 9 84 20 140 10 56 22 152 26 212 l8 110 8 -79
c12 -131 21 -100 15 54 -12 275 -77 473 -216 656 -31 41 -61 66 -61 51z"/>
<path d="M1409 3614 c-76 -111 -144 -301 -154 -429 -5 -58 -5 -58 10 18 22
116 59 218 125 345 32 61 56 112 54 112 -1 0 -17 -21 -35 -46z"/>
<path d="M3913 3464 c-8 -21 13 -42 28 -27 13 13 5 43 -11 43 -6 0 -13 -7 -17
-16z"/>
<path d="M3975 3261 c-6 -56 -5 -66 10 -78 14 -9 22 -10 32 -2 18 16 17 28
-11 90 l-23 54 -8 -64z"/>
<path d="M1241 3104 c0 -11 3 -14 6 -6 3 7 2 16 -1 19 -3 4 -6 -2 -5 -13z"/>
<path d="M1223 2908 c-7 -42 -24 -104 -38 -139 -29 -72 -31 -96 -9 -127 19
-28 74 -30 97 -4 22 24 21 56 -3 120 -11 30 -24 93 -28 140 l-7 87 -12 -77z
m39 -183 c3 -13 1 -22 -3 -19 -9 5 -13 44 -5 44 2 0 6 -11 8 -25z"/>
<path d="M3747 2957 c-4 -10 -7 -35 -7 -55 0 -20 -7 -75 -16 -122 -25 -138
-26 -161 -5 -93 22 70 45 225 39 263 -3 22 -4 23 -11 7z"/>
<path d="M1276 2503 c-4 -9 -9 -42 -13 -72 -4 -46 -2 -59 12 -71 24 -20 51 -1
48 36 -2 39 -26 124 -34 124 -4 0 -10 -8 -13 -17z"/>
<path d="M3470 2260 c0 -5 5 -10 10 -10 6 0 10 5 10 10 0 6 -4 10 -10 10 -5 0
-10 -4 -10 -10z"/>
<path d="M1626 1994 c-3 -66 -8 -137 -12 -160 -6 -45 11 -69 41 -58 15 6 16
15 10 58 -14 109 -21 191 -17 199 2 5 11 -1 19 -12 25 -36 35 -12 12 27 -45
75 -46 74 -53 -54z"/>
<path d="M3164 1796 c-8 -34 4 -68 24 -64 24 5 24 81 0 86 -12 2 -19 -5 -24
-22z"/>
<path d="M3128 1595 c-4 -16 -10 -70 -13 -120 -4 -49 -14 -113 -22 -142 -15
-48 -15 -54 1 -77 20 -31 37 -33 61 -6 17 18 17 25 5 78 -7 31 -16 111 -19
177 -4 77 -9 109 -13 90z"/>
<path d="M2553 413 c9 -2 25 -2 35 0 9 3 1 5 -18 5 -19 0 -27 -2 -17 -5z"/>
</g>
</svg>